# 3ds Max Wavefront OBJ Exporter v0.97b - (c)2007 guruware
# File Created: 21.07.2016 10:12:52

mtllib stein2.mtl

#
# object stein
#

v  -1.0169 0.8846 1.0935
v  -2.2267 0.5248 -0.8979
v  0.5576 -0.1534 -0.8289
v  0.6321 0.8084 1.5035
v  2.1278 0.4229 -0.6957
v  2.6493 1.1347 0.8830
v  -1.1587 0.5921 -2.3964
v  0.8546 0.4711 -2.7728
v  1.2008 1.1352 -2.1692
v  -1.4400 1.6339 1.0387
v  0.8164 1.9035 1.0340
v  0.5351 2.6014 -0.8282
v  -2.1580 0.9063 -0.9624
v  1.8383 1.8367 0.9735
v  2.3573 2.0960 -0.4004
v  1.2274 2.2302 -2.5044
v  -1.2311 1.5715 -2.4581
v  1.8083 1.6086 -2.1097
# 18 vertices

vn -0.1861 -0.9202 0.3444
vn -0.2063 -0.9775 0.0441
vn 0.1028 -0.9943 -0.0292
vn 0.0723 -0.9266 0.3690
vn 0.3271 -0.9448 0.0161
vn 0.2485 -0.9111 0.3287
vn -0.0783 -0.9919 -0.1004
vn 0.4360 -0.8827 -0.1751
vn 0.7379 -0.6273 -0.2489
vn -0.3915 0.9181 0.0616
vn 0.0225 0.9472 0.3197
vn -0.0951 0.9933 -0.0655
vn -0.4570 0.8859 -0.0793
vn 0.0763 0.9741 0.2127
vn 0.2402 0.9707 0.0095
vn 0.2305 0.9728 -0.0205
vn -0.2450 0.9331 0.2632
vn 0.5389 0.8350 -0.1114
vn -0.0619 0.1688 0.9837
vn -0.0485 0.3708 0.9274
vn -0.0198 0.3568 0.9340
vn -0.0062 0.0694 0.9976
vn 0.2623 0.1808 0.9479
vn 0.2064 0.2459 0.9471
vn 0.9285 0.3659 0.0628
vn 0.9197 -0.1744 -0.3517
vn 0.9835 0.1120 -0.1423
vn 0.6317 0.6825 0.3675
vn 0.5216 -0.5921 -0.6143
vn 0.7521 -0.4114 -0.5149
vn 0.7856 -0.1984 -0.5860
vn 0.1945 0.0503 -0.9796
vn 0.2956 -0.0463 -0.9542
vn 0.3109 -0.2851 -0.9067
vn -0.1876 -0.0755 -0.9793
vn -0.1358 0.0258 -0.9904
vn -0.8258 -0.0769 -0.5587
vn -0.9924 0.0703 -0.1007
vn -0.9694 0.1149 -0.2168
vn -0.8264 -0.0960 -0.5549
vn -0.7551 -0.3877 0.5287
vn -0.7925 -0.3317 0.5118
# 42 vertex normals

vt 1.0000 0.0000 0.0000
vt 1.0000 0.5000 0.0000
vt 0.5000 0.5000 0.0000
vt 0.5000 0.0000 0.0000
vt 0.0000 0.5000 0.0000
vt 0.0000 0.0000 0.0000
vt 1.0000 1.0000 0.0000
vt 0.5000 1.0000 0.0000
vt 0.0000 1.0000 0.0000
# 9 texture coords

g stein
usemtl wire_225087143
s 2
f 1/1/1 2/2/2 3/3/3 4/4/4 
f 4/4/4 3/3/3 5/5/5 6/6/6 
f 2/2/2 7/7/7 8/8/8 3/3/3 
f 3/3/3 8/8/8 9/9/9 5/5/5 
s 4
f 10/6/10 11/4/11 12/3/12 13/5/13 
f 11/4/11 14/1/14 15/2/15 12/3/12 
f 13/5/13 12/3/12 16/8/16 17/9/17 
f 12/3/12 15/2/15 18/7/18 16/8/16 
s 8
f 1/6/19 4/4/20 11/8/21 10/9/22 
f 4/4/20 6/1/23 14/7/24 11/8/21 
s 16
f 6/6/25 5/4/26 15/8/27 14/9/28 
f 5/4/26 9/1/29 18/7/30 15/8/27 
s 32
f 9/6/31 8/4/32 16/8/33 18/9/34 
f 8/4/32 7/1/35 17/7/36 16/8/33 
s 64
f 7/6/37 2/4/38 13/8/39 17/9/40 
f 2/4/38 1/1/41 10/7/42 13/8/39 
# 16 polygons

