# 3ds Max Wavefront OBJ Exporter v0.97b - (c)2007 guruware
# File Created: 22.07.2016 15:43:51

mtllib stock.mtl

#
# object Cylinder001
#

v  0.4397 0.0000 -0.7616
v  0.4397 57.3934 -0.7616
v  0.8794 57.3934 -0.0000
v  0.8794 0.0000 -0.0000
v  -0.4397 0.0000 -0.7616
v  -0.4397 57.3934 -0.7616
v  -0.8794 0.0000 0.0000
v  -0.8794 57.3934 0.0000
v  -0.4397 0.0000 0.7616
v  -0.4397 57.3934 0.7616
v  0.4397 0.0000 0.7616
v  0.4397 57.3934 0.7616
# 12 vertices

vn 0.5000 0.0000 -0.8660
vn 1.0000 0.0000 0.0000
vn -0.5000 0.0000 -0.8660
vn -1.0000 0.0000 0.0000
vn -0.5000 0.0000 0.8660
vn 0.5000 0.0000 0.8660
vn 0.0000 -1.0000 -0.0000
vn 0.0000 1.0000 -0.0000
# 8 vertex normals

vt 0.9167 0.0000 1.0000
vt 0.9167 0.9050 1.0000
vt 0.7500 0.9050 1.0000
vt 0.7500 0.0000 1.0000
vt 1.0833 0.0000 1.0000
vt 1.0833 0.9050 1.0000
vt 0.2500 0.0000 1.0000
vt 0.2500 0.9050 1.0000
vt 0.0833 0.9050 1.0000
vt 0.0833 0.0000 1.0000
vt 0.4167 0.0000 1.0000
vt 0.4167 0.9050 1.0000
vt 0.5833 0.0000 1.0000
vt 0.5833 0.9050 1.0000
vt 0.9330 0.2500 -0.2500
vt 0.5000 0.0000 -0.2500
vt 0.0670 0.2500 -0.2500
vt 0.5000 1.0000 -0.2500
vt 0.0670 0.7500 -0.2500
vt 0.9330 0.7500 -0.2500
# 20 texture coords

g Cylinder001
usemtl wire_087225087
s 8
f 1/1/1 2/2/1 3/3/2 4/4/2 
f 5/5/3 6/6/3 2/2/1 1/1/1 
f 7/7/4 8/8/4 6/9/3 5/10/3 
f 9/11/5 10/12/5 8/8/4 7/7/4 
f 11/13/6 12/14/6 10/12/5 9/11/5 
f 4/4/2 3/3/2 12/14/6 11/13/6 
s 1
f 9/15/7 7/16/7 5/17/7 4/18/7 
f 5/17/7 1/19/7 4/18/7 
f 11/20/7 9/15/7 4/18/7 
s off
f 6/6/8 8/8/8 10/12/8 3/3/8 
f 10/12/8 12/14/8 3/3/8 
f 2/2/8 6/6/8 3/3/8 
# 8 polygons - 4 triangles

