# 3ds Max Wavefront OBJ Exporter v0.97b - (c)2007 guruware
# File Created: 22.07.2016 13:06:06

mtllib ziegelstein.mtl

#
# object ziegelstein
#

v  -3.8801 0.0000 2.2748
v  -3.8801 0.0000 -2.2748
v  3.8801 0.0000 -2.2748
v  3.8801 0.0000 2.2748
v  -3.8801 2.4691 2.2748
v  3.8801 2.4691 2.2748
v  3.8801 2.4691 -2.2748
v  -3.8801 2.4691 -2.2748
v  -3.8801 0.0935 2.3683
v  3.8801 0.0935 2.3683
v  3.8801 2.3757 2.3683
v  -3.8801 2.3757 2.3683
v  3.9736 0.0935 2.2748
v  3.9736 0.0935 -2.2748
v  3.9736 2.3757 -2.2748
v  3.9736 2.3757 2.2748
v  3.8801 0.0935 -2.3683
v  -3.8801 0.0935 -2.3683
v  -3.8801 2.3757 -2.3683
v  3.8801 2.3757 -2.3683
v  -3.9736 0.0935 -2.2748
v  -3.9736 0.0935 2.2748
v  -3.9736 2.3757 2.2748
v  -3.9736 2.3757 -2.2748
# 24 vertices

vn -0.3416 -0.8756 0.3416
vn -0.3416 -0.8756 -0.3416
vn 0.3416 -0.8756 -0.3416
vn 0.3416 -0.8756 0.3416
vn -0.3416 0.8756 0.3416
vn 0.3416 0.8756 0.3416
vn 0.3416 0.8756 -0.3416
vn -0.3416 0.8756 -0.3416
vn -0.3416 -0.3416 0.8756
vn 0.3416 -0.3416 0.8756
vn 0.3416 0.3416 0.8756
vn -0.3416 0.3416 0.8756
vn 0.8756 -0.3416 0.3416
vn 0.8756 -0.3416 -0.3416
vn 0.8756 0.3416 -0.3416
vn 0.8756 0.3416 0.3416
vn 0.3416 -0.3416 -0.8756
vn -0.3416 -0.3416 -0.8756
vn -0.3416 0.3416 -0.8756
vn 0.3416 0.3416 -0.8756
vn -0.8756 -0.3416 -0.3416
vn -0.8756 -0.3416 0.3416
vn -0.8756 0.3416 0.3416
vn -0.8756 0.3416 -0.3416
# 24 vertex normals

vt 0.0084 0.3215 0.0000
vt 0.0084 0.0084 0.0000
vt 0.5424 0.0084 0.0000
vt 0.5424 0.3215 0.0000
vt 0.0020 0.3397 0.0000
vt 0.5293 0.3397 0.0000
vt 0.5293 0.6489 0.0000
vt 0.0020 0.6489 0.0000
vt 0.0020 0.8353 0.0000
vt 0.5336 0.8353 0.0000
vt 0.5336 0.9916 0.0000
vt 0.0020 0.9916 0.0000
vt 0.5476 0.3397 0.0000
vt 0.8615 0.3397 0.0000
vt 0.8615 0.4972 0.0000
vt 0.5476 0.4972 0.0000
vt 0.0020 0.6607 0.0000
vt 0.5336 0.6607 0.0000
vt 0.5336 0.8170 0.0000
vt 0.0020 0.8170 0.0000
vt 0.5671 0.0020 0.0000
vt 0.8810 0.0020 0.0000
vt 0.8810 0.1595 0.0000
vt 0.5671 0.1595 0.0000
vt 0.5544 0.8430 0.0000
vt 0.5454 0.8430 0.0000
vt 0.5499 0.8353 0.0000
vt 0.5456 0.5155 0.0000
vt 0.5501 0.5233 0.0000
vt 0.5411 0.5233 0.0000
vt 0.5544 0.6881 0.0000
vt 0.5454 0.6881 0.0000
vt 0.5499 0.6803 0.0000
vt 0.8843 0.3397 0.0000
vt 0.8888 0.3475 0.0000
vt 0.8798 0.3475 0.0000
vt 0.5696 0.1778 0.0000
vt 0.5651 0.1855 0.0000
vt 0.5606 0.1778 0.0000
vt 0.5544 0.6607 0.0000
vt 0.5499 0.6685 0.0000
vt 0.5454 0.6607 0.0000
vt 0.5752 0.6607 0.0000
vt 0.5707 0.6685 0.0000
vt 0.5662 0.6607 0.0000
vt 0.9083 0.0020 0.0000
vt 0.9038 0.0098 0.0000
vt 0.8993 0.0020 0.0000
vt 0.0020 0.3215 0.0000
vt 0.0020 0.0084 0.0000
vt 0.0084 0.0020 0.0000
vt 0.5424 0.0020 0.0000
vt 0.5488 0.0084 0.0000
vt 0.5488 0.3215 0.0000
vt 0.5424 0.3279 0.0000
vt 0.0084 0.3279 0.0000
vt 0.0020 0.9980 0.0000
vt 0.5336 0.9980 0.0000
vt 0.5476 0.5037 0.0000
vt 0.8615 0.5037 0.0000
vt 0.0020 0.8234 0.0000
vt 0.5336 0.8234 0.0000
vt 0.5671 0.1659 0.0000
vt 0.8810 0.1659 0.0000
vt 0.5411 0.3397 0.0000
vt 0.5411 0.4972 0.0000
vt 0.8875 0.1595 0.0000
vt 0.8875 0.0020 0.0000
vt 0.8680 0.3397 0.0000
vt 0.8680 0.4972 0.0000
vt 0.5606 0.0020 0.0000
vt 0.5606 0.1595 0.0000
# 72 texture coords

g ziegelstein
usemtl wire_135059008
s 1
f 1/1/1 2/2/2 3/3/3 4/4/4 
f 5/5/5 6/6/6 7/7/7 8/8/8 
f 9/9/9 10/10/10 11/11/11 12/12/12 
f 13/13/13 14/14/14 15/15/15 16/16/16 
f 17/17/17 18/18/18 19/19/19 20/20/20 
f 21/21/21 22/22/22 23/23/23 24/24/24 
f 9/25/9 22/26/22 1/27/1 
f 4/28/4 13/29/13 10/30/10 
f 21/31/21 18/32/18 2/33/2 
f 3/34/3 17/35/17 14/36/14 
f 12/37/12 5/38/5 23/39/23 
f 16/40/16 6/41/6 11/42/11 
f 24/43/24 8/44/8 19/45/19 
f 20/46/20 7/47/7 15/48/15 
f 1/1/1 22/49/22 21/50/21 2/2/2 
f 2/2/2 18/51/18 17/52/17 3/3/3 
f 3/3/3 14/53/14 13/54/13 4/4/4 
f 4/4/4 10/55/10 9/56/9 1/1/1 
f 5/57/5 12/12/12 11/11/11 6/58/6 
f 6/59/6 16/16/16 15/15/15 7/60/7 
f 7/61/7 20/20/20 19/19/19 8/62/8 
f 8/63/8 24/24/24 23/23/23 5/64/5 
f 10/65/10 13/13/13 16/16/16 11/66/11 
f 12/67/12 23/23/23 22/22/22 9/68/9 
f 14/14/14 17/69/17 20/70/20 15/15/15 
f 18/71/18 21/21/21 24/24/24 19/72/19 
# 18 polygons - 8 triangles

