# 3ds Max Wavefront OBJ Exporter v0.97b - (c)2007 guruware
# File Created: 20.07.2016 21:08:56

mtllib cylinder.mtl

#
# object cylinder
#

v  7.3552 0.1952 -0.0000
v  5.9505 0.1952 -4.3233
v  5.9505 30.1796 -4.3233
v  7.3552 30.1796 -0.0000
v  2.2729 0.1952 -6.9952
v  2.2729 30.1796 -6.9952
v  -2.2729 0.1952 -6.9952
v  -2.2729 30.1796 -6.9952
v  -5.9505 0.1952 -4.3233
v  -5.9505 30.1796 -4.3233
v  -7.3552 0.1952 0.0000
v  -7.3552 30.1796 0.0000
v  -5.9505 0.1952 4.3233
v  -5.9505 30.1796 4.3233
v  -2.2729 0.1952 6.9952
v  -2.2729 30.1796 6.9952
v  2.2729 0.1952 6.9952
v  2.2729 30.1796 6.9952
v  5.9505 0.1952 4.3233
v  5.9505 30.1796 4.3233
# 20 vertices

vn 1.0000 0.0000 -0.0000
vn 0.8090 0.0000 -0.5878
vn 0.3090 0.0000 -0.9511
vn -0.3090 0.0000 -0.9511
vn -0.8090 0.0000 -0.5878
vn -1.0000 0.0000 0.0000
vn -0.8090 0.0000 0.5878
vn -0.3090 0.0000 0.9511
vn 0.3090 0.0000 0.9511
vn 0.8090 0.0000 0.5878
# 10 vertex normals

vt 0.7500 0.0000 1.0000
vt 0.8500 0.0000 1.0000
vt 0.8500 1.0000 1.0000
vt 0.7500 1.0000 1.0000
vt 0.9500 0.0000 1.0000
vt 0.9500 1.0000 1.0000
vt 1.0500 0.0000 1.0000
vt 1.0500 1.0000 1.0000
vt 0.0500 0.0000 1.0000
vt 0.1500 0.0000 1.0000
vt 0.1500 1.0000 1.0000
vt 0.0500 1.0000 1.0000
vt 0.2500 0.0000 1.0000
vt 0.2500 1.0000 1.0000
vt 0.3500 0.0000 1.0000
vt 0.3500 1.0000 1.0000
vt 0.4500 0.0000 1.0000
vt 0.4500 1.0000 1.0000
vt 0.5500 0.0000 1.0000
vt 0.5500 1.0000 1.0000
vt 0.6500 0.0000 1.0000
vt 0.6500 1.0000 1.0000
# 22 texture coords

g cylinder
usemtl wire_086086086
s 8
f 1/1/1 2/2/2 3/3/2 4/4/1 
f 2/2/2 5/5/3 6/6/3 3/3/2 
f 5/5/3 7/7/4 8/8/4 6/6/3 
f 7/9/4 9/10/5 10/11/5 8/12/4 
f 9/10/5 11/13/6 12/14/6 10/11/5 
f 11/13/6 13/15/7 14/16/7 12/14/6 
f 13/15/7 15/17/8 16/18/8 14/16/7 
f 15/17/8 17/19/9 18/20/9 16/18/8 
f 17/19/9 19/21/10 20/22/10 18/20/9 
f 19/21/10 1/1/1 4/4/1 20/22/10 
# 10 polygons

