# 3ds Max Wavefront OBJ Exporter v0.97b - (c)2007 guruware
# File Created: 25.07.2016 21:03:21

mtllib feuerball lp.mtl

#
# object feuerball_lp
#

v  -0.0000 2.8908 -0.0000
v  1.5198 2.4591 -0.0000
v  0.4696 2.4591 -1.4454
v  2.5856 1.2928 -0.0000
v  1.9894 1.5198 -1.4454
v  0.7990 1.2928 -2.4591
v  -1.2295 2.4591 -0.8933
v  -0.7599 1.5198 -2.3387
v  -2.0918 1.2928 -1.5198
v  -1.2295 2.4591 0.8933
v  -2.4591 1.5198 0.0000
v  -2.0918 1.2928 1.5198
v  0.4696 2.4591 1.4454
v  -0.7599 1.5198 2.3387
v  0.7990 1.2928 2.4591
v  1.9894 1.5198 1.4454
v  2.7493 0.0000 0.8933
v  2.7493 0.0000 -0.8933
v  2.0918 -1.2928 1.5198
v  2.4591 -1.5198 0.0000
v  2.0918 -1.2928 -1.5198
v  1.6992 0.0000 -2.3387
v  -0.0000 0.0000 -2.8908
v  0.7599 -1.5198 -2.3387
v  -0.7990 -1.2928 -2.4591
v  -1.6992 0.0000 -2.3387
v  -2.7493 0.0000 -0.8933
v  -1.9894 -1.5198 -1.4454
v  -2.5856 -1.2928 0.0000
v  -2.7493 0.0000 0.8933
v  -1.6992 0.0000 2.3387
v  -1.9894 -1.5198 1.4454
v  -0.7990 -1.2928 2.4591
v  0.0000 0.0000 2.8908
v  1.6992 0.0000 2.3387
v  0.7599 -1.5198 2.3387
v  -0.0000 -2.8908 -0.0000
v  -0.4696 -2.4591 -1.4454
v  1.2295 -2.4591 -0.8933
v  -1.5198 -2.4591 0.0000
v  -0.4696 -2.4591 1.4454
v  1.2295 -2.4591 0.8933
# 42 vertices

vn -0.0000 1.0000 -0.0000
vn 0.5257 0.8507 0.0000
vn 0.1625 0.8507 -0.5000
vn 0.8944 0.4472 -0.0000
vn 0.6882 0.5257 -0.5000
vn 0.2764 0.4472 -0.8507
vn -0.4253 0.8507 -0.3090
vn -0.2629 0.5257 -0.8090
vn -0.7236 0.4472 -0.5257
vn -0.4253 0.8507 0.3090
vn -0.8507 0.5257 0.0000
vn -0.7236 0.4472 0.5257
vn 0.1625 0.8507 0.5000
vn -0.2629 0.5257 0.8090
vn 0.2764 0.4472 0.8507
vn 0.6882 0.5257 0.5000
vn 0.9511 -0.0000 0.3090
vn 0.9511 -0.0000 -0.3090
vn 0.7236 -0.4472 0.5257
vn 0.8507 -0.5257 -0.0000
vn 0.7236 -0.4472 -0.5257
vn 0.5878 0.0000 -0.8090
vn -0.0000 -0.0000 -1.0000
vn 0.2629 -0.5257 -0.8090
vn -0.2764 -0.4472 -0.8507
vn -0.5878 -0.0000 -0.8090
vn -0.9511 -0.0000 -0.3090
vn -0.6882 -0.5257 -0.5000
vn -0.8944 -0.4472 0.0000
vn -0.9511 -0.0000 0.3090
vn -0.5878 -0.0000 0.8090
vn -0.6882 -0.5257 0.5000
vn -0.2764 -0.4472 0.8507
vn 0.0000 -0.0000 1.0000
vn 0.5878 -0.0000 0.8090
vn 0.2629 -0.5257 0.8090
vn -0.0000 -1.0000 -0.0000
vn -0.1625 -0.8507 -0.5000
vn 0.4253 -0.8507 -0.3090
vn -0.5257 -0.8507 0.0000
vn -0.1625 -0.8507 0.5000
vn 0.4253 -0.8507 0.3090
# 42 vertex normals

vt 0.6949 0.8679 0.0000
vt 0.6083 0.7154 0.0000
vt 0.7815 0.7154 0.0000
vt 0.6083 0.5628 0.0000
vt 0.6949 0.5876 0.0000
vt 0.7815 0.5628 0.0000
vt 0.8681 0.8679 0.0000
vt 0.9547 0.7154 0.0000
vt 0.8681 0.5876 0.0000
vt 0.9547 0.5628 0.0000
vt 0.1752 0.8679 0.0000
vt 0.0886 0.7154 0.0000
vt 0.2618 0.7154 0.0000
vt 0.0886 0.5628 0.0000
vt 0.1752 0.5876 0.0000
vt 0.2618 0.5628 0.0000
vt 0.3484 0.8679 0.0000
vt 0.4350 0.7154 0.0000
vt 0.3484 0.5876 0.0000
vt 0.4350 0.5628 0.0000
vt 0.5217 0.8679 0.0000
vt 0.5217 0.5876 0.0000
vt 0.5650 0.4349 0.0000
vt 0.6516 0.4349 0.0000
vt 0.5217 0.3071 0.0000
vt 0.6083 0.2823 0.0000
vt 0.6949 0.3071 0.0000
vt 0.7382 0.4349 0.0000
vt 0.8248 0.4349 0.0000
vt 0.7815 0.2823 0.0000
vt 0.8681 0.3071 0.0000
vt 0.9114 0.4349 0.0000
vt 0.9980 0.4349 0.0000
vt 0.9547 0.2823 0.0000
vt 0.1319 0.4349 0.0000
vt 0.0886 0.2823 0.0000
vt 0.1752 0.3071 0.0000
vt 0.2185 0.4349 0.0000
vt 0.3051 0.4349 0.0000
vt 0.2618 0.2823 0.0000
vt 0.3484 0.3071 0.0000
vt 0.3917 0.4349 0.0000
vt 0.4783 0.4349 0.0000
vt 0.4350 0.2823 0.0000
vt 0.7815 0.0020 0.0000
vt 0.8681 0.1545 0.0000
vt 0.6949 0.1545 0.0000
vt 0.0886 0.0020 0.0000
vt 0.1752 0.1545 0.0000
vt 0.0020 0.1545 0.0000
vt 0.2618 0.0020 0.0000
vt 0.3484 0.1545 0.0000
vt 0.4350 0.0020 0.0000
vt 0.5217 0.1545 0.0000
vt 0.6083 0.0020 0.0000
# 55 texture coords

g feuerball_lp
usemtl wire_108008136
s 1
f 1/1/1 2/2/2 3/3/3 
f 2/2/2 4/4/4 5/5/5 
f 2/2/2 5/5/5 3/3/3 
f 3/3/3 5/5/5 6/6/6 
f 1/7/1 3/3/3 7/8/7 
f 3/3/3 6/6/6 8/9/8 
f 3/3/3 8/9/8 7/8/7 
f 7/8/7 8/9/8 9/10/9 
f 1/11/1 7/12/7 10/13/10 
f 7/12/7 9/14/9 11/15/11 
f 7/12/7 11/15/11 10/13/10 
f 10/13/10 11/15/11 12/16/12 
f 1/17/1 10/13/10 13/18/13 
f 10/13/10 12/16/12 14/19/14 
f 10/13/10 14/19/14 13/18/13 
f 13/18/13 14/19/14 15/20/15 
f 1/21/1 13/18/13 2/2/2 
f 13/18/13 15/20/15 16/22/16 
f 13/18/13 16/22/16 2/2/2 
f 2/2/2 16/22/16 4/4/4 
f 4/4/4 17/23/17 18/24/18 
f 17/23/17 19/25/19 20/26/20 
f 17/23/17 20/26/20 18/24/18 
f 18/24/18 20/26/20 21/27/21 
f 6/6/6 22/28/22 23/29/23 
f 22/28/22 21/27/21 24/30/24 
f 22/28/22 24/30/24 23/29/23 
f 23/29/23 24/30/24 25/31/25 
f 9/10/9 26/32/26 27/33/27 
f 26/32/26 25/31/25 28/34/28 
f 26/32/26 28/34/28 27/33/27 
f 27/35/27 28/36/28 29/37/29 
f 12/16/12 30/38/30 31/39/31 
f 30/38/30 29/37/29 32/40/32 
f 30/38/30 32/40/32 31/39/31 
f 31/39/31 32/40/32 33/41/33 
f 15/20/15 34/42/34 35/43/35 
f 34/42/34 33/41/33 36/44/36 
f 34/42/34 36/44/36 35/43/35 
f 35/43/35 36/44/36 19/25/19 
f 21/27/21 22/28/22 18/24/18 
f 22/28/22 6/6/6 5/5/5 
f 22/28/22 5/5/5 18/24/18 
f 18/24/18 5/5/5 4/4/4 
f 25/31/25 26/32/26 23/29/23 
f 26/32/26 9/10/9 8/9/8 
f 26/32/26 8/9/8 23/29/23 
f 23/29/23 8/9/8 6/6/6 
f 29/37/29 30/38/30 27/35/27 
f 30/38/30 12/16/12 11/15/11 
f 30/38/30 11/15/11 27/35/27 
f 27/35/27 11/15/11 9/14/9 
f 33/41/33 34/42/34 31/39/31 
f 34/42/34 15/20/15 14/19/14 
f 34/42/34 14/19/14 31/39/31 
f 31/39/31 14/19/14 12/16/12 
f 19/25/19 17/23/17 35/43/35 
f 17/23/17 4/4/4 16/22/16 
f 17/23/17 16/22/16 35/43/35 
f 35/43/35 16/22/16 15/20/15 
f 37/45/37 38/46/38 39/47/39 
f 38/46/38 25/31/25 24/30/24 
f 38/46/38 24/30/24 39/47/39 
f 39/47/39 24/30/24 21/27/21 
f 37/48/37 40/49/40 38/50/38 
f 40/49/40 29/37/29 28/36/28 
f 40/49/40 28/36/28 38/50/38 
f 38/46/38 28/34/28 25/31/25 
f 37/51/37 41/52/41 40/49/40 
f 41/52/41 33/41/33 32/40/32 
f 41/52/41 32/40/32 40/49/40 
f 40/49/40 32/40/32 29/37/29 
f 37/53/37 42/54/42 41/52/41 
f 42/54/42 19/25/19 36/44/36 
f 42/54/42 36/44/36 41/52/41 
f 41/52/41 36/44/36 33/41/33 
f 37/55/37 39/47/39 42/54/42 
f 39/47/39 21/27/21 20/26/20 
f 39/47/39 20/26/20 42/54/42 
f 42/54/42 20/26/20 19/25/19 
# 0 polygons - 80 triangles

