# 3ds Max Wavefront OBJ Exporter v0.97b - (c)2007 guruware
# File Created: 21.07.2016 10:10:06

mtllib stein.mtl

#
# object stein
#

v  -1.0169 0.8846 1.0935
v  -2.2267 0.5248 -0.8979
v  0.5576 -0.1534 -0.8289
v  0.6321 0.8084 1.5035
v  3.3326 0.4938 -0.9987
v  2.6493 1.1347 0.8830
v  -1.1587 0.5921 -2.3964
v  0.8546 0.4711 -2.7728
v  2.4056 1.2061 -2.4722
v  -1.4400 2.3969 1.0387
v  1.0317 2.9516 1.7145
v  0.5351 3.3644 -0.8282
v  -2.5059 2.0902 -1.1609
v  2.5134 2.7124 0.8990
v  3.5620 2.9299 -0.7034
v  1.2274 2.9932 -2.5044
v  -1.2311 2.3345 -2.4581
v  3.0131 2.4425 -2.4128
# 18 vertices

vn -0.1861 -0.9202 0.3444
vn -0.2063 -0.9775 0.0441
vn 0.0221 -0.9997 0.0105
vn 0.0583 -0.9208 0.3856
vn 0.2305 -0.9709 -0.0653
vn 0.2640 -0.8797 0.3955
vn -0.0783 -0.9919 -0.1004
vn 0.1885 -0.9506 -0.2465
vn 0.2843 -0.8709 -0.4008
vn -0.3400 0.9323 0.1234
vn -0.0332 0.9800 0.1964
vn -0.1250 0.9897 -0.0701
vn -0.3516 0.9338 -0.0664
vn 0.3264 0.8844 0.3336
vn 0.1689 0.9814 -0.0916
vn 0.0621 0.9841 -0.1663
vn -0.2594 0.9630 -0.0735
vn 0.1973 0.9495 -0.2438
vn -0.2504 -0.0424 0.9672
vn 0.0223 -0.0672 0.9975
vn 0.1639 -0.1246 0.9786
vn -0.2559 -0.0366 0.9660
vn 0.2917 0.0154 0.9564
vn 0.3775 -0.0802 0.9225
vn 0.8875 -0.0462 0.4584
vn 0.9831 -0.1713 -0.0641
vn 0.9883 -0.0538 0.1427
vn 0.8308 0.0660 0.5526
vn 0.7217 -0.3251 -0.6111
vn 0.8813 -0.1742 -0.4392
vn 0.1122 0.0561 -0.9921
vn -0.0093 0.0628 -0.9980
vn 0.0366 0.0798 -0.9961
vn 0.0573 0.0198 -0.9982
vn -0.1860 -0.0425 -0.9816
vn -0.1112 0.0432 -0.9929
vn -0.7488 -0.1390 -0.6480
vn -0.9768 -0.2126 -0.0256
vn -0.9761 -0.1428 -0.1636
vn -0.7070 -0.0543 -0.7051
vn -0.8184 -0.2096 0.5350
vn -0.8492 -0.1628 0.5023
# 42 vertex normals

vt 1.0000 0.0000 0.0000
vt 1.0000 0.5000 0.0000
vt 0.5000 0.5000 0.0000
vt 0.5000 0.0000 0.0000
vt 0.0000 0.5000 0.0000
vt 0.0000 0.0000 0.0000
vt 1.0000 1.0000 0.0000
vt 0.5000 1.0000 0.0000
vt 0.0000 1.0000 0.0000
# 9 texture coords

g stein
usemtl wire_225087143
s 2
f 1/1/1 2/2/2 3/3/3 4/4/4 
f 4/4/4 3/3/3 5/5/5 6/6/6 
f 2/2/2 7/7/7 8/8/8 3/3/3 
f 3/3/3 8/8/8 9/9/9 5/5/5 
s 4
f 10/6/10 11/4/11 12/3/12 13/5/13 
f 11/4/11 14/1/14 15/2/15 12/3/12 
f 13/5/13 12/3/12 16/8/16 17/9/17 
f 12/3/12 15/2/15 18/7/18 16/8/16 
s 8
f 1/6/19 4/4/20 11/8/21 10/9/22 
f 4/4/20 6/1/23 14/7/24 11/8/21 
s 16
f 6/6/25 5/4/26 15/8/27 14/9/28 
f 5/4/26 9/1/29 18/7/30 15/8/27 
s 32
f 9/6/31 8/4/32 16/8/33 18/9/34 
f 8/4/32 7/1/35 17/7/36 16/8/33 
s 64
f 7/6/37 2/4/38 13/8/39 17/9/40 
f 2/4/38 1/1/41 10/7/42 13/8/39 
# 16 polygons

